PathFileType	4	(X/Y/Z)	C:/Users/opensim2020/Desktop/walking_exp_matlab/subject02_walking04_straight_03.trc																																																																																																																												
DataRate	CameraRate	NumFrames	NumMarkers	Units	OrigDataRate	OrigDataStartFrame	OrigNumFrames																																																																																																																								
100	100	7	42	mm	100	2206	222																																																																																																																								
Frame#	Time	LFHD			RFHD			LBHD			RBHD			C7			T10			CLAV			STRN			RBAK			LSHO			LUPA			LELB			LFRM			LWRA			LWRB			LFIN			RSHO			RUPA			RELB			RFRM			RWRA			RWRB			RFIN			LASI			RASI			LPSI			RPSI			LTHI			LKNE			LTIB			LANK			LHEE			LTOE			RTHI			RKNE			RTIB			RANK			RHEE			RTOE			*39			*40			*41		
		X1	Y1	Z1	X2	Y2	Z2	X3	Y3	Z3	X4	Y4	Z4	X5	Y5	Z5	X6	Y6	Z6	X7	Y7	Z7	X8	Y8	Z8	X9	Y9	Z9	X10	Y10	Z10	X11	Y11	Z11	X12	Y12	Z12	X13	Y13	Z13	X14	Y14	Z14	X15	Y15	Z15	X16	Y16	Z16	X17	Y17	Z17	X18	Y18	Z18	X19	Y19	Z19	X20	Y20	Z20	X21	Y21	Z21	X22	Y22	Z22	X23	Y23	Z23	X24	Y24	Z24	X25	Y25	Z25	X26	Y26	Z26	X27	Y27	Z27	X28	Y28	Z28	X29	Y29	Z29	X30	Y30	Z30	X31	Y31	Z31	X32	Y32	Z32	X33	Y33	Z33	X34	Y34	Z34	X35	Y35	Z35	X36	Y36	Z36	X37	Y37	Z37	X38	Y38	Z38	X39	Y39	Z39	X40	Y40	Z40	X41	Y41	Z41	X42	Y42	Z42
																																																																																																																															
1	0	-926.03033	1714.04553	-994.73981	-939.58716	1692.94507	-849.94989	-1054.40491	1643.26794	-1015.45447	-1083.0863	1621.02881	-876.68524	-1127.26794	1510.51563	-939.47791	-1200.00073	1236.2981	-934.44067	-994.18707	1428.51819	-953.5285	-954.82123	1255.91675	-938.88232	-1195.94043	1341.63135	-870.38074	-1065.44165	1474.77649	-1120.91064	-1118.47461	1283.5481	-1202.8429	-1152.46729	1149.01245	-1221.62488	-1168.85339	1019.87311	-1248.41895	-1127.31213	885.70038	-1246.60522	-1179.60901	897.83856	-1264.1969	-1171.90405	832.03497	-1277.22961	-1041.9751	1472.34705	-756.54626	-1037.91846	1280.68713	-667.13245	-985.02887	1139.73511	-652.98413	-915.53546	1038.58289	-657.66705	-834.21924	940.25696	-703.4198	-867.98096	917.22589	-662.7207	-809.76251	876.21295	-675.79114	-960.29663	976.8772	-1064.43799	-977.3775	951.04175	-805.37518	-1176.95642	1012.17188	-993.8241	-1188.29358	1009.35181	-880.96185	-959.8595	680.51483	-1153.72021	-917.12756	484.32224	-1137.93481	-912.11658	291.98038	-1156.85059	-834.96002	78.91416	-1151.8031	-859.63361	39.76987	-1102.0061	-677.44391	77.39046	-1159.19153	-1108.4624	652.17407	-764.15149	-1154.35669	447.26416	-810.82745	-1244.08142	280.61307	-808.72833	-1311.05432	97.88645	-850.12659	-1356.4989	47.92604	-905.96979	-1167.81238	29.44635	-839.19739	-1032.20264	1780.91223	-911.57007	2845.84082	1033.77014	-3356.9873	NaN	NaN	NaN
2	0.01	-915.70776	1712.98486	-994.37402	-932.50208	1692.38904	-852.76971	-1046.6001	1642.37708	-1018.73157	-1075.83472	1620.21863	-880.17737	-1119.20764	1509.48621	-942.92432	-1191.44885	1235.16162	-937.84644	-986.0058	1427.7301	-956.58801	-946.40259	1255.19702	-941.61548	-1187.65039	1340.37231	-873.7851	-1057.23291	1473.75134	-1124.21069	-1109.52795	1282.16516	-1205.99023	-1143.36877	1147.79871	-1224.67004	-1159.59094	1018.40234	-1251.41492	-1117.86865	884.15491	-1249.23059	-1170.01563	896.21295	-1267.13879	-1162.29797	830.51367	-1280.01306	-1033.86145	1471.3479	-759.67767	-1031.09839	1280.04248	-670.25806	-978.65979	1138.59009	-656.17609	-910.31647	1037.06116	-660.44556	-829.24384	938.34259	-706.11884	-863.20941	915.22046	-665.39484	-805.2937	873.74341	-678.29291	-950.81567	976.2337	-1066.87915	-969.09125	950.23193	-807.72748	-1167.80188	1011.17914	-997.18378	-1179.57129	1008.38129	-884.50696	-950.31775	679.36908	-1155.95068	-908.51752	482.9191	-1139.25769	-904.90247	290.44077	-1157.77502	-829.62421	76.7879	-1151.72253	-854.69788	37.85823	-1101.94824	-672.31354	74.44572	-1159.427	-1102.50098	652.18494	-765.76385	-1149.14417	447.18085	-811.5451	-1240.9231	281.72354	-809.16034	-1310.11499	99.4613	-850.03473	-1356.28259	50.67551	-905.52283	-1167.61401	29.35616	-839.22729	-1025.17578	1780.15564	-914.72736	2845.81641	1033.76917	-3356.91309	NaN	NaN	NaN
3	0.02	-910.71088	1712.97253	-1000.46405	-925.33997	1691.88782	-855.79291	-1039.30933	1641.57263	-1022.4519	-1068.41296	1619.31287	-883.6001	-1111.15784	1508.51208	-946.40778	-1182.79785	1234.05798	-941.28461	-977.70386	1427.03088	-959.77814	-937.75348	1254.54614	-944.4801	-1180.14404	1339.83105	-877.24078	-1048.61646	1472.46191	-1127.52869	-1100.49841	1280.83069	-1209.2229	-1134.08044	1146.1261	-1227.80212	-1149.8811	1016.74042	-1254.21326	-1108.10291	882.75934	-1251.97876	-1160.40515	894.79755	-1269.86414	-1152.4303	829.04797	-1282.92578	-1026.23718	1470.49512	-763.06995	-1023.91431	1279.31189	-673.41876	-972.42706	1137.66406	-659.45905	-904.80066	1035.5824	-663.24884	-824.23218	935.86029	-708.26483	-858.70374	913.26556	-667.91608	-801.58893	871.04944	-680.51599	-941.07092	975.65265	-1069.41455	-960.56464	949.41205	-810.2395	-1158.44543	1010.27521	-1000.73297	-1170.71973	1007.55963	-888.1059	-940.65149	678.24542	-1158.36816	-900.05548	481.44861	-1140.61389	-898.18011	288.75009	-1158.65674	-825.3089	74.61618	-1151.67285	-850.64789	35.74367	-1101.61292	-668.17755	70.95148	-1159.75476	-1095.24878	651.9826	-767.44287	-1143.2334	447.29037	-812.16858	-1237.34888	282.88553	-809.60992	-1309.10229	101.5835	-849.6767	-1355.6842	53.22	-905.27551	-1167.42883	29.2511	-839.01227	-1018.03247	1779.20325	-918.08997	2845.8667	1033.77441	-3357.28394	NaN	NaN	NaN
4	0.03	-903.03906	1712.55811	-1003.59381	-917.91467	1691.55139	-859.1604	-1030.76343	1640.67871	-1025.71277	-1060.73242	1618.4552	-887.25464	-1103.18481	1507.52795	-950.12738	-1173.97424	1232.90466	-944.94159	-969.31879	1426.38599	-963.08673	-928.90582	1254.04004	-947.50873	-1171.05493	1338.48499	-880.97662	-1040.12512	1471.45557	-1131.04431	-1091.31519	1279.43494	-1212.53491	-1124.81934	1144.96716	-1231.0896	-1140.35791	1015.46869	-1257.43457	-1098.07666	881.12311	-1254.60645	-1150.23938	893.19354	-1272.9696	-1142.27808	827.68292	-1285.80591	-1018.21985	1469.98389	-766.4433	-1015.82098	1278.57031	-676.90503	-965.76825	1136.74817	-662.87488	-898.70129	1033.96912	-666.32379	-819.74371	933.20441	-711.04877	-854.29065	911.37872	-670.31024	-797.52814	868.54688	-682.83472	-931.08411	975.16498	-1072.07471	-951.7912	948.73822	-812.91907	-1148.80933	1009.37848	-1004.47278	-1161.53113	1006.64948	-891.95636	-930.80157	677.12738	-1160.78931	-891.8443	479.81641	-1142.06018	-891.96722	286.98837	-1159.43958	-821.69696	71.99727	-1151.34363	-847.54053	33.88355	-1101.20764	-664.93457	67.12731	-1160.10852	-1088.47961	651.9964	-769.18445	-1137.38208	447.53479	-812.8147	-1233.33801	284.14441	-810.06946	-1308.04993	103.93134	-849.2337	-1355.13428	56.38696	-904.63916	-1167.2666	29.17734	-838.88959	-1010.84351	1778.5647	-921.71301	2845.79102	1033.86194	-3357.04712	NaN	NaN	NaN
5	0.04	-892.89154	1711.85364	-1003.99536	-910.64294	1691.22131	-862.51196	-1023.14063	1640.09241	-1029.53564	-1052.92615	1617.65308	-891.04211	-1095.15686	1506.65796	-953.74255	-1164.92944	1231.72461	-948.64203	-960.84454	1425.81555	-966.46088	-920.00262	1253.61804	-950.61212	-1162.60803	1337.44202	-884.69489	-1031.50769	1470.61389	-1134.65857	-1082.23718	1278.35583	-1215.98364	-1115.26917	1143.68115	-1234.37549	-1130.3125	1013.99182	-1260.49854	-1087.8042	880.08844	-1257.50671	-1139.92383	891.78326	-1275.83105	-1131.81482	826.30188	-1288.72925	-1010.33057	1469.45374	-769.94696	-1009.17413	1278.14136	-680.43805	-959.44257	1135.99243	-666.36768	-893.90198	1032.66992	-669.06195	-815.58154	930.90808	-713.87323	-850.14905	909.45459	-672.70288	-793.69318	865.90765	-684.86316	-920.85492	974.79321	-1074.9552	-942.77625	948.02026	-815.75159	-1138.90479	1008.4566	-1008.41418	-1152.1394	1005.77289	-895.94611	-920.78784	675.96814	-1163.09058	-884.00256	478.11172	-1143.52979	-886.25037	285.06082	-1160.23621	-818.8255	69.52621	-1151.0542	-845.26184	32.44408	-1101.18469	-662.28943	62.78404	-1160.20667	-1080.64636	651.888	-771.05396	-1129.96497	447.34726	-813.45941	-1228.901	285.58694	-810.46088	-1306.27966	106.71662	-848.70898	-1354.01721	59.59871	-904.0387	-1167.14197	29.32871	-838.60773	-1003.62231	1777.81372	-925.39697	2845.07959	1033.7887	-3360.21802	NaN	NaN	NaN
6	0.05	-887.89648	1711.95435	-1010.50641	-903.15277	1691.02832	-866.07617	-1015.21259	1639.24561	-1033.32092	-1045.30896	1616.74866	-894.75104	-1086.95496	1505.7052	-957.55713	-1155.73889	1230.53284	-952.48999	-952.33032	1425.22534	-969.8692	-910.93463	1253.18372	-953.83691	-1154.58972	1336.58887	-888.52081	-1022.84454	1469.55505	-1138.33557	-1072.74805	1276.97656	-1219.55042	-1105.62964	1142.28271	-1237.78918	-1120.11511	1012.61798	-1263.60999	-1077.23218	878.77173	-1260.25488	-1129.48621	890.42957	-1278.64246	-1121.04919	824.92108	-1291.60303	-1002.5946	1468.87329	-773.65594	-1001.21588	1277.83716	-683.94092	-953.30481	1135.36548	-669.94116	-888.90851	1031.39941	-671.8717	-811.26111	928.35034	-716.2298	-846.01532	907.69531	-674.79791	-790.34271	863.21033	-686.9726	-910.51416	974.35303	-1077.87744	-933.38922	947.34216	-818.80457	-1128.95642	1007.58832	-1012.48047	-1142.51135	1004.87415	-900.07452	-910.70984	674.83881	-1165.47217	-876.61792	476.28629	-1145.04175	-881.01929	283.00778	-1160.8302	-816.59338	67.22408	-1151.03723	-844.01764	31.8054	-1101.32996	-659.80591	57.28469	-1160.32996	-1072.9425	652.0296	-773.01324	-1123.05176	447.70197	-813.88898	-1223.9397	287.16486	-810.78839	-1304.68835	109.63867	-847.93463	-1353.2782	63.87226	-903.39899	-1166.92896	29.26941	-838.34845	-996.40967	1777.24084	-929.26007	2845.15649	1033.8147	-3360.25049	NaN	NaN	NaN
7	0.06	-880.33258	1711.97473	-1014.78339	-895.76514	1691.02795	-869.62677	-1007.09723	1638.51086	-1037.14966	-1036.99414	1615.94739	-898.63678	-1078.55981	1504.75354	-961.5791	-1146.60156	1229.54456	-956.38672	-943.74304	1424.83423	-973.44794	-901.76349	1253.00964	-957.19659	-1145.42419	1335.36938	-892.69574	-1014.03571	1468.75842	-1142.08398	-1064.45227	1276.39514	-1223.75745	-1095.63318	1140.98767	-1241.20667	-1109.64478	1011.24658	-1266.78796	-1066.39209	877.30286	-1262.92249	-1118.59778	889.03796	-1281.54773	-1109.96521	823.55682	-1294.56567	-994.65332	1468.62451	-777.19446	-993.66351	1277.41516	-687.72485	-946.48627	1134.64075	-673.49072	-883.24194	1030.00415	-674.78491	-806.49506	926.22369	-717.59686	-842.1333	905.90778	-676.88458	-786.69928	860.52118	-688.86542	-900.01874	974.06671	-1080.98083	-923.86053	946.74799	-822.01984	-1118.745	1006.72852	-1016.8324	-1132.73938	1003.99646	-904.31262	-900.65973	673.94183	-1167.84277	-869.69489	474.83774	-1147.22034	-875.91705	281.21161	-1160.9176	-813.99438	66.48219	-1151.44531	-842.8974	33.32189	-1101.57788	-656.86621	49.21626	-1161.1969	-1063.86926	651.78503	-775.06836	-1114.39563	447.64334	-814.67236	-1218.44177	288.98248	-811.13068	-1302.63171	113.06409	-847.19922	-1351.90515	68.12014	-902.56317	-1166.67651	29.24678	-838.07971	-989.11462	1776.70825	-933.32446	2845.8335	1033.93811	-3357.40186	NaN	NaN	NaN
